<svg width="256" height="256" viewBox="0 0 256 256" fill="none" xmlns="http://www.w3.org/2000/svg">
<g clip-path="url(#clip0_65_14)">
<path d="M6.11 69H60.17C73.09 69 84.48 71.4933 94.34 76.48C104.313 81.3533 112.02 88.2667 117.46 97.22C123.013 106.173 125.79 116.6 125.79 128.5C125.79 140.4 123.013 150.827 117.46 159.78C112.02 168.733 104.313 175.703 94.34 180.69C84.48 185.563 73.09 188 60.17 188H6.11V69ZM58.81 165.39C70.71 165.39 80.1733 162.103 87.2 155.53C94.34 148.843 97.91 139.833 97.91 128.5C97.91 117.167 94.34 108.213 87.2 101.64C80.1733 94.9533 70.71 91.61 58.81 91.61H33.65V165.39H58.81ZM210.519 162.5H155.269L144.729 188H116.509L169.549 69H196.749L249.959 188H221.059L210.519 162.5ZM201.849 141.59L182.979 96.03L164.109 141.59H201.849Z" fill="#F5F5F5"/>
</g>
<defs>
<clipPath id="clip0_65_14">
<rect width="256" height="256" fill="white"/>
</clipPath>
</defs>
</svg>
