<svg width="24" height="24" viewBox="0 0 24 24" fill="none" xmlns="http://www.w3.org/2000/svg">
<path d="M20.3429 7.35907C20.3561 7.54904 20.3561 7.73901 20.3561 7.93073C20.3561 13.7726 15.9088 20.51 7.77682 20.51V20.5065C5.3746 20.51 3.02228 19.8219 1 18.5245C1.3493 18.5665 1.70036 18.5875 2.05228 18.5884C4.04305 18.5901 5.9769 17.9222 7.54307 16.6922C5.65124 16.6563 3.99227 15.4228 3.41272 13.622C4.07544 13.7498 4.75828 13.7235 5.40874 13.5458C3.34619 13.1291 1.86231 11.317 1.86231 9.21238C1.86231 9.19312 1.86231 9.17474 1.86231 9.15636C2.47687 9.49865 3.16497 9.68863 3.86883 9.70964C1.92622 8.41135 1.32742 5.82704 2.50051 3.80651C4.74515 6.56854 8.05696 8.24764 11.6121 8.42536C11.2558 6.88983 11.7426 5.28076 12.8912 4.20134C14.6718 2.52749 17.4724 2.61328 19.1462 4.39306C20.1363 4.19784 21.0853 3.83453 21.9538 3.31977C21.6237 4.34316 20.933 5.21248 20.0103 5.76488C20.8866 5.66158 21.7428 5.42696 22.5491 5.06891C21.9555 5.95836 21.2079 6.73313 20.3429 7.35907Z" fill="#F5F5F5"/>
</svg>
