<svg width="24" height="24" viewBox="0 0 24 24" fill="none" xmlns="http://www.w3.org/2000/svg">
<g clip-path="url(#clip0_51_68)">
<path d="M24.03 5.01004C23.1432 5.40379 22.1925 5.66816 21.1932 5.78816C22.2132 5.17691 22.9969 4.20941 23.3644 3.05816C22.4119 3.62254 21.3525 4.03316 20.2294 4.25441C19.3294 3.29441 18.0469 2.69629 16.6275 2.69629C13.9013 2.69629 11.6907 4.90504 11.6907 7.63129C11.6907 8.01754 11.7357 8.39441 11.82 8.75629C7.71755 8.55004 4.08192 6.58504 1.6463 3.59816C1.22067 4.32941 0.978799 5.17691 0.978799 6.08066C0.978799 7.79254 1.8488 9.30379 3.17442 10.1907C2.36442 10.1644 1.60317 9.94129 0.937549 9.57191C0.937549 9.59254 0.937549 9.61316 0.937549 9.63379C0.937549 12.0263 2.64005 14.0194 4.89567 14.475C4.48317 14.5875 4.0463 14.6475 3.5963 14.6475C3.27755 14.6475 2.96817 14.6175 2.6663 14.5575C3.2963 16.5169 5.1188 17.9475 7.27692 17.9869C5.58942 19.3107 3.4613 20.0982 1.14755 20.0982C0.748174 20.0982 0.356299 20.0757 -0.0280762 20.0288C2.15442 21.4313 4.74942 22.2469 7.53755 22.2469C16.6163 22.2469 21.5813 14.7263 21.5813 8.20504C21.5813 7.99129 21.5757 7.77566 21.5682 7.56566C22.5319 6.87004 23.3682 6.00004 24.03 5.01004Z" fill="#262626"/>
</g>
<defs>
<clipPath id="clip0_51_68">
<rect width="24" height="24" fill="white"/>
</clipPath>
</defs>
</svg>
